<svg id="Laag_2" data-name="Laag 2" xmlns="http://www.w3.org/2000/svg" viewBox="0 0 173.36 117.96"><defs><style>.cls-1{fill:#edc15a;}</style></defs><circle class="cls-1" cx="14.47" cy="28.94" r="14.47"/><circle class="cls-1" cx="86.13" cy="14.47" r="14.47"/><circle class="cls-1" cx="158.89" cy="28.94" r="14.47"/><path class="cls-1" d="M42.81,141.53V154A3.23,3.23,0,0,0,46,157.19H154a3.23,3.23,0,0,0,3.23-3.23V141.53Z" transform="translate(-13.87 -39.23)"/><path class="cls-1" d="M170.87,79.07l-1.51-2.27a3.24,3.24,0,0,0-4.91-.56l-32.07,30.21a3.24,3.24,0,0,1-5.15-1L107.16,61.88A3.21,3.21,0,0,0,104.23,60H95.77a3.21,3.21,0,0,0-2.93,1.88L72.77,105.45a3.24,3.24,0,0,1-5.15,1L35.55,76.24a3.24,3.24,0,0,0-4.91.56l-1.51,2.27a3.23,3.23,0,0,0-.44,2.57l14,56.27a2.6,2.6,0,0,1,.07.56H157.22a2.6,2.6,0,0,1,.07-.56l14-56.27A3.23,3.23,0,0,0,170.87,79.07Z" transform="translate(-13.87 -39.23)"/></svg>