<svg xmlns="http://www.w3.org/2000/svg" width="298.509" height="189.536" viewBox="0 0 298.509 189.536">
  <g id="group" transform="translate(0 -92.25)">
    <g id="Group_28" data-name="Group 28" transform="translate(0 92.25)">
      <path id="Path_2" data-name="Path 2" d="M258.168,175.648a34.08,34.08,0,1,0-39.1,0,59.049,59.049,0,0,0-20.141,11.813A76.409,76.409,0,0,0,171.285,172.4a43.176,43.176,0,1,0-44.652,0,77.045,77.045,0,0,0-27.347,14.884,59.528,59.528,0,0,0-19.9-11.577,34.08,34.08,0,1,0-39.1,0A59.821,59.821,0,0,0,0,232.231v3.9a.254.254,0,0,0,.236.236H72.471a79.44,79.44,0,0,0-.65,9.982v4.016a31.408,31.408,0,0,0,31.422,31.422h91.549a31.408,31.408,0,0,0,31.422-31.422v-4.016a79.436,79.436,0,0,0-.65-9.982h72.708a.254.254,0,0,0,.236-.236v-3.9A60.051,60.051,0,0,0,258.168,175.648Zm-44.18-27.937a24.63,24.63,0,1,1,25.1,24.63h-.945A24.594,24.594,0,0,1,213.988,147.711Zm-98.873-12.285a33.725,33.725,0,1,1,35.675,33.666h-3.9A33.774,33.774,0,0,1,115.115,135.426ZM35.025,147.711a24.63,24.63,0,1,1,25.1,24.63h-.945A24.633,24.633,0,0,1,35.025,147.711Zm39.1,79.146H9.568A50.466,50.466,0,0,1,59.3,181.791h.709a49.941,49.941,0,0,1,32.19,11.99A77.551,77.551,0,0,0,74.125,226.857Zm142.521,23.507a22.006,22.006,0,0,1-21.972,21.972H103.126a22.006,22.006,0,0,1-21.972-21.972v-4.016A67.847,67.847,0,0,1,146.892,178.6c.65.059,1.358.059,2.008.059s1.358,0,2.008-.059a67.847,67.847,0,0,1,65.738,67.746Zm7.029-23.507a77.346,77.346,0,0,0-17.9-32.84,50.182,50.182,0,0,1,32.485-12.226h.709A50.466,50.466,0,0,1,288.7,226.857Z" transform="translate(0 -92.25)" fill="#fff"/>
    </g>
  </g>
</svg>
