<svg xmlns="http://www.w3.org/2000/svg" viewBox="0 0 436.46 982.55"><defs><style>.cls-1{fill:#fff;}</style></defs><g id="Laag_1" data-name="Laag 1"><ellipse class="cls-1" cx="558.3" cy="335.14" rx="92.43" ry="56.51" transform="matrix(0.14, -0.99, 0.99, 0.14, -31.62, 597.24)"/><ellipse class="cls-1" cx="425.93" cy="344.23" rx="78.46" ry="47.97" transform="translate(-119.84 507.91) rotate(-86.94)"/><ellipse class="cls-1" cx="324.35" cy="374.9" rx="35.55" ry="58.15" transform="translate(-212.96 -211.3) rotate(-5.37)"/><ellipse class="cls-1" cx="255.82" cy="411.83" rx="29.34" ry="47.99" transform="translate(-241.64 -197.28) rotate(-9.17)"/><ellipse class="cls-1" cx="204.03" cy="465.09" rx="23.24" ry="38" transform="translate(-301.41 -167.52) rotate(-16.27)"/></g><g id="Laag_2" data-name="Laag 2"><path class="cls-1" d="M558.11,525.8a88,88,0,0,0-47.88-42.93c-12.77-4.88-22.05-12.32-81.63-12.32-56.69,1.05-155.71,17-211.91,101.62-37.63,56.65-34.63,130-23.91,185.58a362.9,362.9,0,0,0,34,97.36c22.93,44.45,65.13,136,64.19,205.74-1.37,100.38,37.44,133.8,45.88,139.86,1.16.84,2.3,1.69,3.42,2.57,10.86,8.43,90.23,47.46,183.29-2.17,73.68-39.3,11.45-128.86-38.19-187.34a214.81,214.81,0,0,1-51-142.93c1-54,11.81-118.44,51.95-155.44C549.11,657.52,589.23,588.67,558.11,525.8Z" transform="translate(-179.31 -243.28)"/></g></svg>