<svg id="Laag_1" data-name="Laag 1" xmlns="http://www.w3.org/2000/svg" viewBox="0 0 163.6 164.05"><defs><style>.cls-1{fill:#4c4b4b;}</style></defs><path class="cls-1" d="M394.58,515.66s23.48-3.75,33.36-1.19c19.4,6.3,7.83,17.19,7.83,17.19C409.21,533.53,393,541,393,541s-21.27,9.19-60.59,5.28-36.87-49.07-36.87-49.07-.13-8.55-.07-15.83A49.64,49.64,0,0,0,294,468.7l-18.25-44.1s-1.6-6.13,4.4-8.3,8.68,1.34,8.68,1.34L311,456.19a6.51,6.51,0,0,0,4.6,2C318.17,458,318,454,318,454l-.25-61.73s-.51-5.29,7-5.49,7.08,3.83,7.08,3.83l4,59.05s.45,3.76,3.19,3.64a3.55,3.55,0,0,0,3.26-2.81l15.31-60.13s1.92-8.75,10.34-6.83,6.52,9.7,6.52,9.7-12.32,57.19-13.09,61,.89,5.68,3.45,6.45,4.85-3.2,4.85-3.2l31-41.83s6-9.42,12.38-3.06.76,12.85.76,12.85S391,454.47,381.55,481.53s5.88,34,5.88,34C392.36,516.68,394.58,515.66,394.58,515.66Z" transform="translate(-275.6 -383.22)"/></svg>