<?xml version="1.0" standalone="no"?>
<!DOCTYPE svg PUBLIC "-//W3C//DTD SVG 20010904//EN"
 "http://www.w3.org/TR/2001/REC-SVG-20010904/DTD/svg10.dtd">
<svg version="1.0" xmlns="http://www.w3.org/2000/svg"
 width="1280.000000pt" height="1565.000000pt" viewBox="0 0 1280.000000 1565.000000"
 preserveAspectRatio="xMidYMid meet">
<metadata>
Created by potrace 1.16, written by Peter Selinger 2001-2019
</metadata>
<g transform="translate(0.000000,1565.000000) scale(0.100000,-0.100000)"
fill="#000000" stroke="none">
<path d="M5445 14980 c-103 -16 -217 -57 -275 -99 -111 -79 -152 -168 -171
-371 -6 -63 -19 -200 -30 -305 -11 -104 -30 -361 -44 -570 -26 -420 -27 -431
-56 -660 -44 -351 -48 -415 -38 -551 9 -115 22 -374 36 -670 2 -56 -3 -189
-11 -296 -25 -305 -22 -1127 4 -1398 27 -282 26 -418 -6 -599 -54 -312 -88
-391 -170 -391 -53 0 -97 25 -157 90 -132 142 -221 424 -267 842 -11 101 -31
271 -45 378 -43 345 -55 486 -55 658 0 217 -17 322 -120 727 -44 171 -100 413
-125 539 -25 126 -57 274 -72 330 -21 81 -27 127 -29 236 -2 169 -12 238 -79
580 -67 339 -79 388 -122 520 -60 177 -129 295 -203 343 -19 13 -60 40 -90 60
-84 56 -132 70 -235 70 -252 -1 -412 -158 -520 -508 -33 -105 -38 -136 -42
-250 -3 -90 0 -170 12 -260 13 -97 20 -247 25 -590 7 -445 9 -467 39 -670 22
-150 34 -276 41 -440 6 -126 17 -350 25 -497 8 -147 15 -303 15 -345 0 -43 16
-206 35 -363 93 -759 110 -858 199 -1176 105 -378 116 -434 137 -754 14 -208
10 -301 -16 -354 -22 -46 -84 -93 -134 -102 -20 -3 -53 -17 -73 -31 -46 -31
-73 -26 -130 25 -77 69 -175 243 -356 633 -63 136 -267 666 -359 933 -24 71
-95 238 -158 370 -62 133 -131 286 -153 341 -22 55 -58 138 -80 185 -56 121
-114 283 -182 508 -49 163 -66 205 -106 265 -97 146 -259 286 -368 317 -72 20
-179 9 -249 -25 -112 -55 -273 -232 -303 -332 -21 -71 -27 -196 -15 -308 32
-279 103 -663 177 -945 79 -305 137 -471 289 -830 61 -146 129 -310 150 -365
116 -301 263 -661 303 -740 24 -49 79 -151 122 -225 157 -274 201 -378 243
-576 41 -191 57 -340 67 -619 6 -171 16 -306 30 -395 12 -76 25 -231 30 -355
6 -134 18 -273 31 -355 16 -99 21 -170 19 -267 -5 -319 -4 -399 7 -578 13
-208 35 -335 89 -531 90 -327 207 -770 231 -879 19 -90 40 -150 83 -240 68
-141 107 -241 185 -465 67 -191 108 -285 157 -355 142 -206 269 -380 316 -434
58 -66 271 -238 402 -323 187 -123 489 -246 700 -286 215 -41 282 -37 540 30
63 16 184 47 269 69 85 21 197 56 250 78 191 78 449 143 626 157 76 6 95 2
395 -71 366 -90 507 -106 720 -86 153 15 212 31 360 101 156 73 303 123 456
154 231 47 554 215 805 418 57 46 132 103 166 126 140 95 265 245 411 492 47
80 112 191 144 246 33 56 95 148 137 205 85 116 209 293 414 595 76 111 193
276 261 367 68 91 206 297 307 459 100 161 222 352 270 423 47 72 126 196 174
275 111 186 346 658 428 865 100 250 362 865 403 946 62 125 221 415 320 585
52 89 100 179 108 201 22 63 45 188 56 308 13 142 13 489 0 537 -17 61 -70
129 -125 159 -68 38 -204 59 -425 66 -184 5 -283 -7 -338 -43 -13 -9 -54 -27
-90 -41 -406 -152 -666 -465 -892 -1073 -123 -330 -139 -358 -280 -507 -177
-185 -271 -306 -455 -583 -129 -196 -177 -259 -234 -312 -73 -67 -182 -131
-278 -162 -89 -29 -131 -2 -282 189 -99 124 -121 159 -150 231 -37 94 -51 197
-61 446 -5 134 -17 311 -26 393 -12 106 -17 239 -18 455 l-1 305 43 160 c57
212 71 282 82 390 5 50 14 119 22 155 10 50 12 171 10 510 -3 653 19 1021 92
1481 47 297 61 408 71 574 4 55 17 192 31 305 64 534 67 564 67 765 -1 122 -9
292 -22 435 -25 283 -41 567 -41 750 0 154 -13 217 -65 325 -45 94 -92 153
-183 231 -136 116 -274 177 -429 190 -144 12 -246 -22 -370 -120 -127 -102
-201 -217 -248 -387 -14 -52 -40 -130 -56 -173 -43 -112 -58 -203 -70 -416 -5
-102 -14 -232 -19 -290 -12 -125 -12 -516 -1 -615 9 -74 -2 -468 -19 -720 -13
-190 -39 -397 -95 -745 -74 -467 -102 -751 -92 -944 7 -126 -5 -297 -34 -481
-11 -71 -28 -186 -39 -255 -20 -129 -60 -261 -112 -365 -72 -143 -205 -315
-243 -315 -51 0 -132 80 -176 174 -51 110 -58 157 -63 471 -3 192 -13 388 -30
580 -20 231 -26 376 -30 712 -5 407 -4 430 19 619 20 157 25 242 25 423 0 124
6 363 14 531 35 726 31 909 -20 1225 -14 83 -29 195 -34 250 -28 296 -104 632
-179 791 -118 248 -291 429 -466 489 -61 20 -178 27 -260 15z"/>
</g>
</svg>
