<svg id="Laag_2" data-name="Laag 2" xmlns="http://www.w3.org/2000/svg" viewBox="0 0 607.53 603.58"><defs><style>.cls-1{fill:#4c4b4b;}</style></defs><path class="cls-1" d="M454.15,997.66s-53.62-47.49,4.59-163.15C511.86,729,558.6,668.08,566.37,658.23a13.46,13.46,0,0,0,2.12-3.79c2.33-6.38,6.63-24.26-12.39-35.84-23.49-14.3-42.21,9.53-42.21,9.53L393.74,789.44a13.65,13.65,0,0,1-5.92,4.57c-7.05,2.77-21.42,5.83-22.7-14.39-1.7-26.89,50.73-231.49,50.73-231.49s8.85-31.1-23.15-34.72-38.13,18.38-38.13,18.38l-58.31,227.3a13.64,13.64,0,0,1-15.63,10.2,11.08,11.08,0,0,1-7-4.48c-6.89-9.44-16.08-228-16.08-228s.51-13.53-25.79-13-25.53,17.36-25.53,17.36v232a13.66,13.66,0,0,1-.7,4.35c-2,5.95-8.7,19.57-24.32,2.93C161.81,759.71,97,637.66,97,637.66s-5.61-14.55-31.66-4.08-14.8,32.93-14.8,32.93l65.36,155a149.16,149.16,0,0,1,7.91,46.73c.26,26.55,0,83,0,83s5.11,163.31,158.3,165.27c141.88,1.81,188.93-17.76,195.11-20.66a13.08,13.08,0,0,1,1.74-.68c11.19-3.48,109.42-37.64,155.83-38.19,4.49-.06,10.71,1.08,13.27-2.61,8.4-12.13,21.14-39.38-33.27-55.9-41.55-11.67-86.1-1.57-93.42.24a15.64,15.64,0,0,0-1.76.56c-4.75,1.91-32.86,12-65.41-.55" transform="translate(-48.08 -513.01)"/></svg>