<svg id="Laag_1" data-name="Laag 1" xmlns="http://www.w3.org/2000/svg" viewBox="0 0 556.9 556.9"><defs><style>.cls-1{fill:#4d4c4c;}</style></defs><path class="cls-1" d="M554.35,38.56,390.7,202.21a22.2,22.2,0,0,1-31.4,0L195.65,38.56a22.2,22.2,0,0,0-31.4,0l-61.2,61.2a22.2,22.2,0,0,0,0,31.4L266.7,294.81a22.2,22.2,0,0,1,0,31.4L103.05,489.86a22.2,22.2,0,0,0,0,31.4l61.2,61.2a22.2,22.2,0,0,0,31.4,0L359.3,418.81a22.2,22.2,0,0,1,31.4,0L554.35,582.46a22.2,22.2,0,0,0,31.4,0l61.2-61.2a22.2,22.2,0,0,0,0-31.4L483.3,326.21a22.2,22.2,0,0,1,0-31.4L647,131.16a22.2,22.2,0,0,0,0-31.4l-61.2-61.2A22.2,22.2,0,0,0,554.35,38.56Z" transform="translate(-96.55 -32.06)"/></svg>