<svg xmlns="http://www.w3.org/2000/svg" viewBox="0 0 436.46 982.55"><defs><style>.cls-1{fill:#4c4b4b;}</style></defs><g id="Laag_1" data-name="Laag 1"><ellipse class="cls-1" cx="236.77" cy="335.14" rx="56.51" ry="92.43" transform="translate(-224.26 -206.49) rotate(-8.12)"/><ellipse class="cls-1" cx="369.14" cy="344.23" rx="47.97" ry="78.46" transform="translate(-197.14 -223.11) rotate(-3.06)"/><ellipse class="cls-1" cx="470.73" cy="374.9" rx="58.15" ry="35.55" transform="translate(-125.88 565.2) rotate(-84.63)"/><ellipse class="cls-1" cx="539.25" cy="411.83" rx="47.99" ry="29.34" transform="translate(-132.52 635.31) rotate(-80.83)"/><ellipse class="cls-1" cx="591.04" cy="465.09" rx="38" ry="23.24" transform="translate(-200.28 658.93) rotate(-73.73)"/></g><g id="Laag_2" data-name="Laag 2"><path class="cls-1" d="M237,525.8a88,88,0,0,1,47.88-42.93c12.77-4.88,22.05-12.32,81.63-12.32,56.69,1.05,155.71,17,211.91,101.62C616,628.82,613,702.2,602.29,757.75a362.9,362.9,0,0,1-34,97.36c-22.93,44.45-65.13,136-64.18,205.74,1.36,100.38-37.45,133.8-45.89,139.86-1.16.84-2.3,1.69-3.42,2.57-10.86,8.43-90.23,47.46-183.29-2.17-73.68-39.3-11.45-128.86,38.19-187.34a214.81,214.81,0,0,0,51-142.93c-1-54-11.81-118.44-52-155.44C246,657.52,205.84,588.67,237,525.8Z" transform="translate(-179.31 -243.28)"/></g></svg>