<svg id="Laag_2" data-name="Laag 2" xmlns="http://www.w3.org/2000/svg" viewBox="0 0 607.53 603.58"><defs><style>.cls-1{fill:#4c4b4b;}</style></defs><path class="cls-1" d="M249.53,997.66s53.62-47.49-4.59-163.15C191.82,729,145.08,668.08,137.3,658.23a13.43,13.43,0,0,1-2.11-3.79c-2.33-6.38-6.63-24.26,12.38-35.84,23.49-14.3,42.22,9.53,42.22,9.53L309.93,789.44a13.63,13.63,0,0,0,5.93,4.57c7.05,2.77,21.41,5.83,22.69-14.39,1.71-26.89-50.72-231.49-50.72-231.49S279,517,311,513.41s38.13,18.38,38.13,18.38l58.3,227.3a13.64,13.64,0,0,0,15.64,10.2,11.06,11.06,0,0,0,7-4.48c6.9-9.44,16.09-228,16.09-228s-.51-13.53,25.78-13,25.54,17.36,25.54,17.36v232a13.66,13.66,0,0,0,.7,4.35c2,5.95,8.7,19.57,24.32,2.93,19.4-20.68,84.25-142.73,84.25-142.73s5.62-14.55,31.66-4.08,14.81,32.93,14.81,32.93l-65.36,155a149.32,149.32,0,0,0-7.92,46.73c-.25,26.55,0,83,0,83s-5.1,163.31-158.29,165.27c-141.89,1.81-188.94-17.76-195.11-20.66a13.63,13.63,0,0,0-1.74-.68c-11.19-3.48-109.42-37.64-155.83-38.19-4.49-.06-10.71,1.08-13.27-2.61-8.4-12.13-21.14-39.38,33.27-55.9,41.55-11.67,86.1-1.57,93.42.24a14.86,14.86,0,0,1,1.75.56c4.76,1.91,32.87,12,65.42-.55" transform="translate(-48.08 -513.01)"/></svg>