<svg id="Laag_1" data-name="Laag 1" xmlns="http://www.w3.org/2000/svg" viewBox="0 0 163.6 164.05"><defs><style>.cls-1{fill:#4c4b4b;}</style></defs><path class="cls-1" d="M327.36,515.49s15.32-6.89,5.87-34-32.17-56.17-32.17-56.17-5.59-6.49.77-12.85,12.38,3.06,12.38,3.06l31,41.83s2.3,4,4.85,3.2,4.21-2.69,3.45-6.45-13.09-61-13.09-61-1.91-7.79,6.51-9.7,10.34,6.83,10.34,6.83l15.32,60.13a3.53,3.53,0,0,0,3.26,2.81c2.74.12,3.19-3.64,3.19-3.64l4-59.05s-.39-4,7.08-3.83,7,5.49,7,5.49L396.74,454s-.12,4,2.43,4.21a6.53,6.53,0,0,0,4.6-2l22.14-38.55s2.69-3.51,8.69-1.34,4.4,8.3,4.4,8.3l-18.26,44.1a49.93,49.93,0,0,0-1.46,12.7c.06,7.28-.07,15.83-.07,15.83s2.45,45.15-36.87,49.07-60.6-5.28-60.6-5.28-16.17-7.49-42.72-9.36c0,0-11.57-10.89,7.83-17.19,9.87-2.56,33.36,1.19,33.36,1.19S322.43,516.68,327.36,515.49Z" transform="translate(-275.6 -383.22)"/></svg>