<svg id="Laag_2" data-name="Laag 2" xmlns="http://www.w3.org/2000/svg" viewBox="0 0 102.57 142.74"><defs><style>.cls-1{stroke:#fff;stroke-miterlimit:10;}</style></defs><path class="cls-1" d="M91,168.77s-39.68.68-39.68-38.8V63.39s-.7-9.62,9.49-9.55S71.1,63,71.1,63V45.87s0-9.68,9.09-9.68,9.1,9.1,9.1,9.1v-9.1S89,27.05,98,27.05s9.1,9.29,9.1,9.29V90.48h0V44.72c0-.24.6-6.82,8.26-6.82,7.81,0,7.76,7.76,7.76,7.76v69.88a.36.36,0,0,0,.66.2l10.88-16.16s2.9-6.39,12.38-2.45,4.65,12.39,4.65,12.39l-17.35,29.94a75.47,75.47,0,0,1-20.08,22.78C108,166.92,98.05,169,91,168.77Z" transform="translate(-50.84 -26.55)"/></svg>